<svg width="136" height="38" viewBox="0 0 136 38" fill="none" xmlns="http://www.w3.org/2000/svg">
<path d="M17.5293 24H15.0269V20.228H5.39551V17.6768H15.0269V12.7207H8.52051C7.91016 12.7207 7.33643 12.8387 6.79932 13.0747C6.26221 13.3026 5.79427 13.6159 5.39551 14.0146C4.99674 14.4134 4.67936 14.8813 4.44336 15.4185C4.21549 15.9474 4.10156 16.5171 4.10156 17.1274V24H1.57471V17.1274C1.57471 16.1672 1.75781 15.2679 2.12402 14.4297C2.49023 13.5915 2.98665 12.859 3.61328 12.2324C4.23991 11.6058 4.9764 11.1134 5.82275 10.7554C6.66911 10.3892 7.56836 10.2061 8.52051 10.2061H17.5293V24ZM37.4146 24H34.0332L27.4414 17.3716L23.6328 20.1304V24H21.1304V10.2549H23.6328V17.2495L33.4595 10.2549H37.2803L29.3579 15.98L37.4146 24ZM53.6743 24H39.3188V10.2061H53.6743V12.7207H41.8457V21.4731H53.6743V24ZM52.0752 18.2993H43.0298V15.7725H52.0752V18.2993ZM69.0918 24C69.0918 23.0885 68.9372 22.2056 68.6279 21.3511C68.3268 20.4884 67.9159 19.6787 67.395 18.9219C66.8823 18.1569 66.2842 17.4448 65.6006 16.7856C64.9251 16.1265 64.2131 15.5405 63.4644 15.0278C62.7157 14.507 61.9507 14.0716 61.1694 13.7217C60.3963 13.3636 59.6598 13.0991 58.96 12.9282V24H56.4575V10.2549H57.8125V10.2793C58.7077 10.3281 59.6598 10.5275 60.6689 10.8774C61.6862 11.2192 62.6953 11.6872 63.6963 12.2812C64.7054 12.8672 65.6738 13.5671 66.6016 14.3809C67.5374 15.1865 68.3675 16.0776 69.0918 17.0542V10.2549H71.582V24H69.0918ZM91.4673 24H88.0859L81.4941 17.3716L77.6855 20.1304V24H75.1831V10.2549H77.6855V17.2495L87.5122 10.2549H91.333L83.4106 15.98L91.4673 24ZM109.106 24H106.604V20.228H96.9727V17.6768H106.604V12.7207H100.098C99.4873 12.7207 98.9136 12.8387 98.3765 13.0747C97.8394 13.3026 97.3714 13.6159 96.9727 14.0146C96.5739 14.4134 96.2565 14.8813 96.0205 15.4185C95.7926 15.9474 95.6787 16.5171 95.6787 17.1274V24H93.1519V17.1274C93.1519 16.1672 93.335 15.2679 93.7012 14.4297C94.0674 13.5915 94.5638 12.859 95.1904 12.2324C95.8171 11.6058 96.5535 11.1134 97.3999 10.7554C98.2463 10.3892 99.1455 10.2061 100.098 10.2061H109.106V24ZM125.342 24C125.342 23.0885 125.187 22.2056 124.878 21.3511C124.577 20.4884 124.166 19.6787 123.645 18.9219C123.132 18.1569 122.534 17.4448 121.851 16.7856C121.175 16.1265 120.463 15.5405 119.714 15.0278C118.966 14.507 118.201 14.0716 117.419 13.7217C116.646 13.3636 115.91 13.0991 115.21 12.9282V24H112.708V10.2549H114.062V10.2793C114.958 10.3281 115.91 10.5275 116.919 10.8774C117.936 11.2192 118.945 11.6872 119.946 12.2812C120.955 12.8672 121.924 13.5671 122.852 14.3809C123.787 15.1865 124.618 16.0776 125.342 17.0542V10.2549H127.832V24H125.342Z" fill="black"/>
</svg>
