<svg width="25" height="26" viewBox="0 0 25 26" fill="none" xmlns="http://www.w3.org/2000/svg">
<path d="M8.14612 23.1666C8.90551 23.1666 9.52112 22.551 9.52112 21.7916C9.52112 21.0322 8.90551 20.4166 8.14612 20.4166C7.38673 20.4166 6.77112 21.0322 6.77112 21.7916C6.77112 22.551 7.38673 23.1666 8.14612 23.1666Z" fill="black"/>
<path d="M16.5 23.1666C17.2594 23.1666 17.875 22.551 17.875 21.7916C17.875 21.0322 17.2594 20.4166 16.5 20.4166C15.7406 20.4166 15.125 21.0322 15.125 21.7916C15.125 22.551 15.7406 23.1666 16.5 23.1666Z" fill="black"/>
<path d="M12.5217 7.88897C12.4991 7.68644 12.4874 7.48229 12.4869 7.27786C12.4874 7.07343 12.4991 6.86927 12.5217 6.66675H7.02167L7.34432 7.88897H12.5217Z" fill="black"/>
<path d="M18.4128 12.1667H17.9649L17.3128 15.2223H8.14614L5.35336 6.37948C5.32315 6.28565 5.27069 6.20052 5.20046 6.13135C5.13023 6.06218 5.04431 6.01103 4.95003 5.98226L2.44447 5.21225C2.36743 5.18858 2.28648 5.18031 2.20624 5.18792C2.126 5.19553 2.04805 5.21887 1.97683 5.25661C1.833 5.33282 1.72534 5.46305 1.67753 5.61864C1.62971 5.77424 1.64567 5.94245 1.72188 6.08628C1.79809 6.23011 1.92832 6.33778 2.08392 6.38559L4.2778 7.05781L7.0828 15.9189L6.08058 16.7378L6.00114 16.8173C5.75323 17.1029 5.61272 17.4661 5.60379 17.8443C5.59487 18.2224 5.7181 18.5919 5.95225 18.8889C6.11881 19.0915 6.33047 19.2522 6.57029 19.3584C6.81011 19.4645 7.07143 19.513 7.33336 19.5H17.5328C17.6949 19.5 17.8503 19.4356 17.9649 19.321C18.0795 19.2064 18.1439 19.051 18.1439 18.8889C18.1439 18.7268 18.0795 18.5714 17.9649 18.4568C17.8503 18.3422 17.6949 18.2778 17.5328 18.2778H7.23558C7.16521 18.2754 7.09665 18.2549 7.03652 18.2183C6.97639 18.1816 6.92672 18.1301 6.89232 18.0687C6.85791 18.0072 6.83994 17.938 6.84012 17.8675C6.8403 17.7971 6.85864 17.728 6.89336 17.6667L8.36614 16.4445H17.8017C17.943 16.4479 18.0811 16.4023 18.1925 16.3154C18.3039 16.2285 18.3818 16.1057 18.4128 15.9678L19.3722 11.745C19.0315 11.8232 18.7624 12.1677 18.4128 12.1667Z" fill="black"/>
<path d="M19.5 11C22.5376 11 25 8.53757 25 5.5C25 2.46243 22.5376 0 19.5 0C16.4624 0 14 2.46243 14 5.5C14 8.53757 16.4624 11 19.5 11Z" fill="#5463EA"/>
</svg>
