<svg width="530" height="379" viewBox="0 0 530 379" fill="none" xmlns="http://www.w3.org/2000/svg">
<path d="M88.4017 89.5813L109.601 120.397C109.601 120.397 127.676 128.49 148.801 144.74L143.744 153.145C143.744 153.145 108.876 137.942 99.9534 131.518L83.6596 104.319L88.4017 89.5813V89.5813Z" fill="#A0616A"/>
<path d="M161.478 159.665C163.501 156.513 161.099 151.016 156.112 147.387C151.126 143.759 145.444 143.373 143.42 146.526C141.397 149.679 143.799 155.175 148.786 158.804C153.772 162.432 159.455 162.818 161.478 159.665Z" fill="#A0616A"/>
<path d="M78.0394 63.2748L84.9772 61.1794C84.9772 61.1794 89.0157 61.1876 91.2941 65.4114C93.5724 69.6352 109.704 107.295 108.939 108.754C108.175 110.213 107.107 110.535 108.477 111.35C109.847 112.164 111.102 111.751 110.168 112.971C109.234 114.191 110.525 116.871 110.525 116.871L92.7282 130.853L78.0394 63.2748V63.2748Z" fill="#5463EA"/>
<path d="M51.1225 372.947L59.5866 372.946L63.613 338.183L51.1208 338.184L51.1225 372.947Z" fill="#A0616A"/>
<path d="M80.1215 372.743C80.385 373.215 80.5241 374.741 80.5241 375.29C80.5241 376.98 79.2379 378.349 77.6514 378.349H51.4391C50.3568 378.349 49.4793 377.415 49.4793 376.263V375.1C49.4793 375.1 48.1826 371.608 50.8523 367.303C50.8523 367.303 54.1704 370.674 59.1284 365.395L60.5905 362.574L71.1739 370.816L77.0401 371.585C78.3235 371.753 79.4613 371.559 80.1215 372.743V372.743Z" fill="#2F2E41"/>
<path d="M81.7568 364.164L90.1041 365.656L99.484 332.084L87.1643 329.881L81.7568 364.164Z" fill="#A0616A"/>
<path d="M110.387 369.078C110.573 369.591 110.473 371.12 110.388 371.662C110.125 373.328 108.643 374.452 107.079 374.172L81.2286 369.547C80.1612 369.356 79.4413 368.28 79.6207 367.144L79.8015 365.998C79.8015 365.998 79.0661 362.325 82.3687 358.55C82.3687 358.55 85.1164 362.46 90.8274 358.128L92.7081 355.605L101.863 365.6L107.528 367.393C108.768 367.785 109.92 367.794 110.387 369.078H110.387Z" fill="#2F2E41"/>
<path d="M99.1076 185.786C99.1076 185.786 110.48 199.963 110.48 212.958C110.48 225.953 110.757 266.775 110.757 266.775C110.757 266.775 104.1 330.504 102.436 335.82C100.772 341.136 99.9397 349.996 99.9397 349.996L83.8525 345.862C83.8525 345.862 81.6336 285.907 88.2903 271.731L72.2031 223.295L66.6558 360.333H47.9807C47.9807 360.333 38.3646 288.27 43.3572 269.368C43.3572 269.368 32.2626 197.305 35.0362 193.17C37.8099 189.035 99.1076 185.786 99.1076 185.786V185.786Z" fill="#2F2E41"/>
<path d="M57.7801 44.6126L72.7579 45.794L77.7504 54.6543C77.7504 54.6543 89.3998 59.9704 91.064 67.6493C92.7282 75.3282 93.2829 165.112 93.2829 165.112L101.604 178.107L101.049 189.33L34.4815 192.874V182.084L28.3795 169.247C28.3795 169.247 35.0362 66.4679 36.7004 65.8772C38.3646 65.2866 51.1234 55.8356 51.1234 55.8356L57.7801 44.6126V44.6126Z" fill="#5463EA"/>
<path d="M64.5588 42.4146C74.9754 42.4146 83.4197 33.423 83.4197 22.3313C83.4197 11.2396 74.9754 2.24805 64.5588 2.24805C54.1423 2.24805 45.698 11.2396 45.698 22.3313C45.698 33.423 54.1423 42.4146 64.5588 42.4146Z" fill="#A0616A"/>
<path d="M79.6242 6.17774C78.6645 3.27943 76.0021 1.52109 73.1166 1.58958C72.9942 1.59245 72.8721 1.59125 72.7511 1.58596C71.298 1.52269 69.9032 0.994215 68.4783 0.684187C65.8228 0.106321 63.0227 0.29979 60.4596 1.2382C59.6629 1.5299 58.8652 1.89671 58.0227 1.89681C57.1802 1.89694 56.2625 1.40502 56.057 0.535056C56.0082 1.32271 55.9596 2.11032 55.9109 2.89793C55.6367 2.26045 55.3626 1.62294 55.0884 0.985426L54.5394 3.52774L52.7804 1.40301C52.9377 2.33952 52.4249 3.28341 51.7307 3.88216C51.0364 4.48094 50.1789 4.81215 49.357 5.18519C45.8095 6.79532 42.4787 9.64603 41.4565 13.6054C40.8107 16.1069 41.1485 18.7618 41.4907 21.3304C41.7932 23.6011 42.1221 25.9503 43.2812 27.8833C44.0243 29.1224 45.0954 30.1651 45.5478 31.5541C45.9695 32.8489 45.8097 34.3312 46.4098 35.5436C47.0123 36.7614 48.2563 37.4504 49.4737 37.9131C50.691 38.376 51.9852 38.7033 53.0337 39.5085C54.082 40.3138 55.2988 42.6336 57.583 42.5087L58.3202 41.0339C59.0786 40.376 56.2719 40.8976 56.2426 39.8564C56.2134 38.8152 59.6197 38.172 59.1369 37.266C58.3966 35.8767 57.3949 34.6675 56.5606 33.3398C55.585 31.7872 54.8177 29.973 55.1543 28.0779C55.2853 27.3407 55.6093 26.6443 56.1029 26.1088C57.5257 24.5651 59.1121 25.2436 60.6539 25.4644C61.7165 25.6168 62.9857 25.4409 63.5375 24.4619C64.183 23.3165 63.4635 21.8595 63.5515 20.527C63.6448 19.1151 64.6494 17.9574 65.7426 17.1524C66.836 16.3475 68.0773 15.7611 69.0609 14.809C70.0443 13.8569 70.745 12.3695 70.3162 11.0298C74.9783 8.96307 75.692 8.7676 80.6013 10.028C80.3674 8.72072 80.0398 7.43271 79.6242 6.17775L79.6242 6.17774Z" fill="#2F2E41"/>
<path d="M0 263.041V202.081C0 200.409 0.669261 198.809 1.83629 197.69C3.00323 196.572 4.56773 196.031 6.12964 196.206C20.5979 194.134 34.2246 195.119 46.5741 200.747C47.9729 200.747 49.111 201.959 49.111 203.449V264.621C49.111 266.111 47.9729 267.322 46.5741 267.322C32.9801 263.928 18.6421 264.811 4.02105 267.322C1.80384 267.322 0 265.402 0 263.041V263.041Z" fill="#E6E6E6"/>
<path d="M0 268.467V206.864C0 203.606 2.4888 200.956 5.548 200.956C19.3831 197.101 33.0587 197.095 46.5741 200.956C47.9729 200.956 49.111 202.168 49.111 203.657V264.204C49.111 265.691 47.9763 266.901 46.5803 266.905C33.2539 264.436 18.9787 266.841 4.02105 272.749C1.80384 272.749 0 270.828 0 268.467V268.467Z" fill="#F2F2F2"/>
<path d="M31.9474 226.414H19.0104C14.3642 226.414 10.5843 222.389 10.5843 217.442C10.5843 212.495 14.3642 208.469 19.0104 208.469H31.9474C36.594 208.469 40.374 212.495 40.374 217.442C40.374 222.389 36.594 226.414 31.9474 226.414Z" fill="#E6E6E6"/>
<path d="M43.8044 105.417L43.3099 137.222C43.3099 137.222 41.7295 162.008 37.8045 189.903L28.449 190.538C28.449 190.538 29.6001 146.985 29.1807 135.524L29.8423 110.07L43.8044 105.417H43.8044Z" fill="#A0616A"/>
<path d="M34.0105 209.617C37.5944 209.488 40.3334 204.172 40.1282 197.745C39.923 191.318 36.8514 186.213 33.2676 186.342C29.6837 186.472 26.9448 191.788 27.1499 198.215C27.3551 204.642 30.4267 209.747 34.0105 209.617Z" fill="#A0616A"/>
<path d="M43.659 64.9253L36.4523 65.2048C36.4523 65.2048 32.6121 66.5358 31.6649 71.3012C30.7177 76.0665 24.0781 125.383 25.2272 126.521C26.3763 127.659 27.485 127.616 26.4167 128.839C25.3483 130.063 24.0355 130.081 25.2765 130.936C26.5176 131.791 26.0642 134.764 26.0642 134.764L45.9963 133.26L43.659 64.9253V64.9253Z" fill="#5463EA"/>
<path d="M519.141 349.08H327.394C326.282 349.08 325.18 348.899 324.119 348.542L324.007 348.494C263.966 316.721 212.489 299.38 166.634 295.478L166.459 295.442C161.923 293.914 158.876 289.483 158.876 284.417V11.5725C158.876 7.8469 160.495 4.44713 163.317 2.2454C166.14 0.0436799 169.672 -0.574126 173.009 0.548374L324.593 51.6025C325.501 51.9084 326.443 52.0631 327.394 52.0631H519.141C525.129 52.0631 530 57.2502 530 63.6254V337.518C530 343.893 525.129 349.08 519.141 349.08V349.08ZM324.65 346.967C325.539 347.259 326.463 347.408 327.394 347.408H519.141C524.263 347.408 528.429 342.971 528.429 337.518V63.6254C528.429 58.1722 524.263 53.7356 519.141 53.7356H327.394C326.282 53.7356 325.181 53.5548 324.119 53.1975L172.535 2.14332C169.681 1.18129 166.66 1.71131 164.246 3.59453C161.831 5.47816 160.446 8.3859 160.446 11.5725V284.417C160.446 288.72 163.016 292.485 166.85 293.819C212.871 297.752 264.491 315.137 324.65 346.967L324.65 346.967Z" fill="#3F3D56"/>
<path d="M332.514 336.69C384.796 316.991 443.121 319.252 505.083 334.726C512.862 336.668 520.319 330.432 520.319 321.924V72.6225C520.319 66.5685 516.443 61.2752 510.921 59.8371C445.556 42.817 384.502 39.6856 330.697 59.9103C326.755 61.392 322.38 60.5892 319.053 57.8932C273.714 21.1426 227.311 2.71618 179.523 8.18744C173.272 8.90319 168.556 14.5763 168.556 21.2714V273.292C168.556 280.04 173.351 285.682 179.654 286.38C231.091 292.077 278.355 309.34 322.311 335.778C325.424 337.65 329.144 337.96 332.514 336.69V336.69Z" fill="#F2F2F2"/>
<path d="M330.835 322.71C327.275 322.71 323.768 321.668 320.677 319.625C283.762 295.212 243.543 280.951 201.14 277.236C191.198 276.365 183.411 267.336 183.411 256.68V41.4134C183.411 30.3648 191.457 21.3116 201.73 20.8033C232.603 19.2704 270.09 33.9307 319.696 66.9235C323.892 69.7137 328.994 70.5422 333.696 69.1996C380.84 55.7246 431.943 55.331 489.929 67.9962C498.931 69.9628 505.465 78.4708 505.465 88.227V298.347C505.465 304.688 502.787 310.578 498.117 314.505C493.412 318.462 487.359 319.88 481.509 318.397C426.654 304.495 379.552 305.5 337.506 321.47C335.322 322.3 333.068 322.71 330.835 322.71ZM206.138 22.368C204.676 22.368 203.235 22.4031 201.803 22.4742C192.371 22.9409 184.981 31.2598 184.981 41.4134V256.68C184.981 266.472 192.135 274.769 201.268 275.569C243.923 279.306 284.377 293.65 321.506 318.204C326.126 321.26 331.765 321.875 336.978 319.896L337.242 320.683L336.978 319.896C379.317 303.812 426.713 302.79 481.872 316.77C487.253 318.133 492.818 316.831 497.143 313.193C501.434 309.584 503.894 304.173 503.894 298.347V88.227C503.894 79.2613 497.888 71.4421 489.613 69.6345C431.872 57.0219 381.005 57.4082 334.103 70.8149C328.981 72.2776 323.428 71.3772 318.864 68.3421C271.853 37.0757 235.854 22.368 206.138 22.368Z" fill="white"/>
<path d="M327.269 70.4487L325.698 70.4641L327.884 322.327L329.454 322.312L327.269 70.4487Z" fill="white"/>
<path d="M198.723 53.8275L198.23 55.4151L308.206 94.1629L308.7 92.5754L198.723 53.8275Z" fill="#3F3D56"/>
<path d="M198.723 84.8261L198.23 86.4136L308.206 125.161L308.7 123.574L198.723 84.8261Z" fill="#3F3D56"/>
<path d="M198.723 115.824L198.23 117.412L308.206 156.16L308.7 154.572L198.723 115.824Z" fill="#3F3D56"/>
<path d="M198.723 146.822L198.23 148.41L308.206 187.158L308.7 185.57L198.723 146.822Z" fill="#3F3D56"/>
<path d="M485.547 94.2552H353.737V95.9278H485.547V94.2552Z" fill="#3F3D56"/>
<path d="M485.547 123.531H353.737V125.204H485.547V123.531Z" fill="#3F3D56"/>
<path d="M485.547 152.807H353.737V154.48H485.547V152.807Z" fill="#3F3D56"/>
<path d="M485.547 182.084H353.737V183.756H485.547V182.084Z" fill="#3F3D56"/>
<path d="M485.547 211.36H353.737V213.032H485.547V211.36Z" fill="#3F3D56"/>
<path d="M485.547 240.636H353.737V242.309H485.547V240.636Z" fill="#3F3D56"/>
<path d="M491.084 326.501C501.06 326.501 509.147 317.89 509.147 307.267C509.147 296.644 501.06 288.033 491.084 288.033C481.107 288.033 473.02 296.644 473.02 307.267C473.02 317.89 481.107 326.501 491.084 326.501Z" fill="#5463EA"/>
<path d="M499.543 306.543L488.335 299.651C487.811 299.329 487.157 299.732 487.157 300.376V306.431H483.795C483.361 306.431 483.009 306.805 483.009 307.267C483.009 307.729 483.361 308.103 483.795 308.103H487.157V314.158C487.157 314.802 487.811 315.204 488.335 314.882L499.543 307.991C500.066 307.669 500.066 306.865 499.543 306.543V306.543Z" fill="white"/>
<path d="M233.861 253.05C234.564 244.478 237.906 236.29 243.255 229.846C248.466 223.569 255.587 219.263 263.267 217.509C267.555 216.529 271.996 216.338 276.338 216.998C277.377 217.156 277.349 218.913 276.299 218.753C268.909 217.631 261.272 219.002 254.632 222.636C247.826 226.36 242.379 232.417 239.014 239.721C237.09 243.898 235.89 248.456 235.509 253.091C235.417 254.213 233.768 254.178 233.861 253.05V253.05Z" fill="white"/>
<path d="M274.509 209.95L287.203 216.619C287.664 216.861 287.74 217.662 287.348 218.007L275.331 228.584C274.518 229.3 273.373 228.035 274.193 227.314L286.209 216.737L286.355 218.125L273.661 211.457C272.708 210.956 273.564 209.453 274.509 209.95V209.95Z" fill="white"/>
</svg>
