<svg width="15" height="15" viewBox="0 0 15 15" fill="none" xmlns="http://www.w3.org/2000/svg">
<path fill-rule="evenodd" clip-rule="evenodd" d="M10.7441 9.67385L14.779 13.7088C14.9208 13.8507 15.0004 14.0431 15.0004 14.2438C15.0003 14.4444 14.9205 14.6368 14.7786 14.7786C14.6367 14.9204 14.4442 15.0001 14.2436 15C14.043 14.9999 13.8506 14.9202 13.7088 14.7782L9.67385 10.7433C8.46766 11.6776 6.95087 12.1172 5.43204 11.9728C3.91321 11.8284 2.50643 11.1108 1.49789 9.96605C0.489347 8.82126 -0.0451978 7.33526 0.00299718 5.81034C0.0511922 4.28543 0.678506 2.83614 1.75732 1.75732C2.83614 0.678507 4.28542 0.0511922 5.81034 0.00299718C7.33526 -0.0451978 8.82126 0.489347 9.96605 1.49789C11.1108 2.50643 11.8284 3.91321 11.9728 5.43204C12.1172 6.95087 11.6783 8.46766 10.7441 9.67385ZM6.00043 10.4996C7.19388 10.4996 8.33844 10.0255 9.18234 9.18159C10.0262 8.33769 10.5003 7.19313 10.5003 5.99968C10.5003 4.80623 10.0262 3.66166 9.18234 2.81777C8.33844 1.97387 7.19388 1.49978 6.00043 1.49978C4.80698 1.49978 3.66241 1.97387 2.81852 2.81777C1.97462 3.66166 1.50053 4.80623 1.50053 5.99968C1.50053 7.19313 1.97462 8.33769 2.81852 9.18159C3.66241 10.0255 4.80698 10.4996 6.00043 10.4996Z" fill="white"/>
</svg>
